<svg xmlns="http://www.w3.org/2000/svg" xmlns:xlink="http://www.w3.org/1999/xlink" width="500" zoomAndPan="magnify" viewBox="0 0 375 149.999998" height="200" preserveAspectRatio="xMidYMid meet" version="1.0"><defs><g/><clipPath id="8f5bc5daad"><path d="M 3.921875 94.148438 L 165.921875 94.148438 L 165.921875 131.523438 L 3.921875 131.523438 Z M 3.921875 94.148438 " clip-rule="nonzero"/></clipPath></defs><rect x="-37.5" width="450" fill="#ffffff" y="-15" height="179.999997" fill-opacity="1"/><rect x="-37.5" width="450" fill="#4f396f" y="-15" height="179.999997" fill-opacity="1"/><g clip-path="url(#8f5bc5daad)"><path fill="#8c52ff" d="M 144.574219 131.914062 L 25.65625 131.914062 C 13.652344 131.914062 3.921875 122.183594 3.921875 110.179688 L 3.921875 -8.738281 C 3.921875 -20.746094 13.652344 -30.476562 25.65625 -30.476562 L 144.574219 -30.476562 C 156.578125 -30.476562 166.308594 -20.746094 166.308594 -8.738281 L 166.308594 110.179688 C 166.308594 122.183594 156.578125 131.914062 144.574219 131.914062 Z M 144.574219 131.914062 " fill-opacity="1" fill-rule="nonzero"/></g><g fill="#ffffff" fill-opacity="1"><g transform="translate(0.0559315, 89.062743)"><g><path d="M 26.4375 0.828125 C 24.007812 0.828125 21.582031 0.644531 19.15625 0.28125 C 16.738281 -0.0703125 14.457031 -0.617188 12.3125 -1.359375 C 10.164062 -2.109375 8.238281 -3.03125 6.53125 -4.125 C 5.539062 -4.789062 4.851562 -5.59375 4.46875 -6.53125 C 4.082031 -7.46875 3.957031 -8.390625 4.09375 -9.296875 C 4.226562 -10.203125 4.582031 -11 5.15625 -11.6875 C 5.738281 -12.375 6.46875 -12.800781 7.34375 -12.96875 C 8.226562 -13.132812 9.195312 -12.890625 10.25 -12.234375 C 12.664062 -10.796875 15.222656 -9.742188 17.921875 -9.078125 C 20.628906 -8.421875 23.46875 -8.09375 26.4375 -8.09375 C 30.789062 -8.09375 33.957031 -8.820312 35.9375 -10.28125 C 37.925781 -11.738281 38.921875 -13.628906 38.921875 -15.953125 C 38.921875 -17.878906 38.21875 -19.390625 36.8125 -20.484375 C 35.40625 -21.585938 32.992188 -22.5 29.578125 -23.21875 L 20.484375 -25.125 C 15.253906 -26.21875 11.359375 -28.070312 8.796875 -30.6875 C 6.234375 -33.3125 4.953125 -36.769531 4.953125 -41.0625 C 4.953125 -43.757812 5.503906 -46.207031 6.609375 -48.40625 C 7.710938 -50.613281 9.269531 -52.515625 11.28125 -54.109375 C 13.289062 -55.710938 15.6875 -56.941406 18.46875 -57.796875 C 21.25 -58.648438 24.316406 -59.078125 27.671875 -59.078125 C 30.984375 -59.078125 34.125 -58.660156 37.09375 -57.828125 C 40.070312 -57.003906 42.742188 -55.796875 45.109375 -54.203125 C 45.992188 -53.597656 46.585938 -52.851562 46.890625 -51.96875 C 47.191406 -51.09375 47.257812 -50.226562 47.09375 -49.375 C 46.925781 -48.519531 46.539062 -47.785156 45.9375 -47.171875 C 45.332031 -46.566406 44.570312 -46.207031 43.65625 -46.09375 C 42.75 -45.988281 41.71875 -46.269531 40.5625 -46.9375 C 38.53125 -48.09375 36.46875 -48.914062 34.375 -49.40625 C 32.28125 -49.90625 30.019531 -50.15625 27.59375 -50.15625 C 25.0625 -50.15625 22.882812 -49.796875 21.0625 -49.078125 C 19.25 -48.359375 17.859375 -47.351562 16.890625 -46.0625 C 15.929688 -44.769531 15.453125 -43.242188 15.453125 -41.484375 C 15.453125 -39.492188 16.113281 -37.90625 17.4375 -36.71875 C 18.757812 -35.539062 21.015625 -34.617188 24.203125 -33.953125 L 33.21875 -32.0625 C 38.664062 -30.90625 42.722656 -29.085938 45.390625 -26.609375 C 48.066406 -24.128906 49.40625 -20.820312 49.40625 -16.6875 C 49.40625 -14.039062 48.867188 -11.644531 47.796875 -9.5 C 46.722656 -7.351562 45.179688 -5.507812 43.171875 -3.96875 C 41.160156 -2.425781 38.75 -1.238281 35.9375 -0.40625 C 33.132812 0.414062 29.96875 0.828125 26.4375 0.828125 Z M 26.4375 0.828125 "/></g></g></g><g fill="#ffffff" fill-opacity="1"><g transform="translate(52.180387, 89.062743)"><g><path d="M 24.046875 0.828125 C 19.804688 0.828125 16.113281 -0.0351562 12.96875 -1.765625 C 9.832031 -3.503906 7.410156 -5.972656 5.703125 -9.171875 C 3.992188 -12.367188 3.140625 -16.113281 3.140625 -20.40625 C 3.140625 -23.65625 3.617188 -26.5625 4.578125 -29.125 C 5.546875 -31.6875 6.9375 -33.863281 8.75 -35.65625 C 10.570312 -37.445312 12.773438 -38.820312 15.359375 -39.78125 C 17.953125 -40.75 20.847656 -41.234375 24.046875 -41.234375 C 25.859375 -41.234375 27.820312 -40.984375 29.9375 -40.484375 C 32.0625 -39.992188 34.0625 -39.164062 35.9375 -38 C 36.820312 -37.457031 37.398438 -36.800781 37.671875 -36.03125 C 37.953125 -35.257812 38.007812 -34.472656 37.84375 -33.671875 C 37.675781 -32.867188 37.332031 -32.175781 36.8125 -31.59375 C 36.289062 -31.019531 35.644531 -30.664062 34.875 -30.53125 C 34.101562 -30.394531 33.25 -30.570312 32.3125 -31.0625 C 31.09375 -31.78125 29.847656 -32.316406 28.578125 -32.671875 C 27.316406 -33.035156 26.109375 -33.21875 24.953125 -33.21875 C 23.128906 -33.21875 21.53125 -32.925781 20.15625 -32.34375 C 18.78125 -31.769531 17.609375 -30.941406 16.640625 -29.859375 C 15.679688 -28.785156 14.953125 -27.453125 14.453125 -25.859375 C 13.960938 -24.265625 13.71875 -22.421875 13.71875 -20.328125 C 13.71875 -16.253906 14.691406 -13.046875 16.640625 -10.703125 C 18.597656 -8.359375 21.367188 -7.1875 24.953125 -7.1875 C 26.109375 -7.1875 27.304688 -7.351562 28.546875 -7.6875 C 29.785156 -8.019531 31.039062 -8.539062 32.3125 -9.25 C 33.25 -9.75 34.085938 -9.914062 34.828125 -9.75 C 35.566406 -9.582031 36.179688 -9.207031 36.671875 -8.625 C 37.171875 -8.050781 37.476562 -7.363281 37.59375 -6.5625 C 37.707031 -5.769531 37.609375 -4.988281 37.296875 -4.21875 C 36.992188 -3.445312 36.429688 -2.8125 35.609375 -2.3125 C 33.796875 -1.207031 31.867188 -0.410156 29.828125 0.078125 C 27.785156 0.578125 25.859375 0.828125 24.046875 0.828125 Z M 24.046875 0.828125 "/></g></g></g><g fill="#ffffff" fill-opacity="1"><g transform="translate(91.170462, 89.062743)"><g><path d="M 10.5 0.65625 C 8.84375 0.65625 7.570312 0.203125 6.6875 -0.703125 C 5.8125 -1.609375 5.375 -2.914062 5.375 -4.625 L 5.375 -53.703125 C 5.375 -55.410156 5.8125 -56.703125 6.6875 -57.578125 C 7.570312 -58.460938 8.84375 -58.90625 10.5 -58.90625 C 12.144531 -58.90625 13.421875 -58.460938 14.328125 -57.578125 C 15.242188 -56.703125 15.703125 -55.410156 15.703125 -53.703125 L 15.703125 -32.3125 L 14.546875 -32.3125 C 15.753906 -35.226562 17.640625 -37.441406 20.203125 -38.953125 C 22.765625 -40.472656 25.671875 -41.234375 28.921875 -41.234375 C 32.171875 -41.234375 34.84375 -40.625 36.9375 -39.40625 C 39.03125 -38.195312 40.597656 -36.363281 41.640625 -33.90625 C 42.691406 -31.457031 43.21875 -28.363281 43.21875 -24.625 L 43.21875 -4.625 C 43.21875 -2.914062 42.773438 -1.609375 41.890625 -0.703125 C 41.003906 0.203125 39.738281 0.65625 38.09375 0.65625 C 36.4375 0.65625 35.15625 0.203125 34.25 -0.703125 C 33.34375 -1.609375 32.890625 -2.914062 32.890625 -4.625 L 32.890625 -24.125 C 32.890625 -27.269531 32.296875 -29.554688 31.109375 -30.984375 C 29.921875 -32.410156 28.085938 -33.125 25.609375 -33.125 C 22.578125 -33.125 20.164062 -32.175781 18.375 -30.28125 C 16.59375 -28.382812 15.703125 -25.863281 15.703125 -22.71875 L 15.703125 -4.625 C 15.703125 -1.101562 13.96875 0.65625 10.5 0.65625 Z M 10.5 0.65625 "/></g></g></g><g fill="#ffffff" fill-opacity="1"><g transform="translate(139.495036, 89.062743)"><g><path d="M 20 0.828125 C 16.632812 0.828125 13.847656 0.207031 11.640625 -1.03125 C 9.441406 -2.269531 7.804688 -4.128906 6.734375 -6.609375 C 5.660156 -9.085938 5.125 -12.171875 5.125 -15.859375 L 5.125 -35.859375 C 5.125 -37.617188 5.5625 -38.925781 6.4375 -39.78125 C 7.320312 -40.632812 8.59375 -41.0625 10.25 -41.0625 C 11.894531 -41.0625 13.171875 -40.632812 14.078125 -39.78125 C 14.992188 -38.925781 15.453125 -37.617188 15.453125 -35.859375 L 15.453125 -15.703125 C 15.453125 -12.835938 16.03125 -10.710938 17.1875 -9.328125 C 18.34375 -7.953125 20.1875 -7.265625 22.71875 -7.265625 C 25.476562 -7.265625 27.738281 -8.210938 29.5 -10.109375 C 31.257812 -12.015625 32.140625 -14.539062 32.140625 -17.6875 L 32.140625 -35.859375 C 32.140625 -37.617188 32.578125 -38.925781 33.453125 -39.78125 C 34.335938 -40.632812 35.609375 -41.0625 37.265625 -41.0625 C 38.921875 -41.0625 40.203125 -40.632812 41.109375 -39.78125 C 42.015625 -38.925781 42.46875 -37.617188 42.46875 -35.859375 L 42.46875 -4.625 C 42.46875 -1.101562 40.785156 0.65625 37.421875 0.65625 C 35.828125 0.65625 34.585938 0.203125 33.703125 -0.703125 C 32.828125 -1.609375 32.390625 -2.914062 32.390625 -4.625 L 32.390625 -10.90625 L 33.546875 -8.421875 C 32.390625 -5.453125 30.640625 -3.164062 28.296875 -1.5625 C 25.953125 0.03125 23.1875 0.828125 20 0.828125 Z M 20 0.828125 "/></g></g></g><g fill="#ffffff" fill-opacity="1"><g transform="translate(187.323983, 89.062743)"><g><path d="M 19.171875 0.828125 C 14.597656 0.828125 11.15625 -0.476562 8.84375 -3.09375 C 6.53125 -5.707031 5.375 -9.550781 5.375 -14.625 L 5.375 -53.703125 C 5.375 -55.410156 5.8125 -56.703125 6.6875 -57.578125 C 7.570312 -58.460938 8.84375 -58.90625 10.5 -58.90625 C 12.144531 -58.90625 13.421875 -58.460938 14.328125 -57.578125 C 15.242188 -56.703125 15.703125 -55.410156 15.703125 -53.703125 L 15.703125 -15.125 C 15.703125 -12.582031 16.238281 -10.707031 17.3125 -9.5 C 18.382812 -8.289062 19.910156 -7.6875 21.890625 -7.6875 C 22.335938 -7.6875 22.753906 -7.695312 23.140625 -7.71875 C 23.523438 -7.75 23.910156 -7.789062 24.296875 -7.84375 C 25.066406 -7.957031 25.585938 -7.75 25.859375 -7.21875 C 26.140625 -6.695312 26.28125 -5.640625 26.28125 -4.046875 C 26.28125 -2.671875 26.003906 -1.597656 25.453125 -0.828125 C 24.898438 -0.0546875 23.988281 0.410156 22.71875 0.578125 C 22.164062 0.628906 21.585938 0.679688 20.984375 0.734375 C 20.378906 0.796875 19.773438 0.828125 19.171875 0.828125 Z M 19.171875 0.828125 "/></g></g></g><g fill="#ffffff" fill-opacity="1"><g transform="translate(213.675329, 89.062743)"><g><path d="M 11.65625 0.65625 C 9.945312 0.65625 8.632812 0.175781 7.71875 -0.78125 C 6.8125 -1.75 6.359375 -3.085938 6.359375 -4.796875 L 6.359375 -53.453125 C 6.359375 -55.222656 6.8125 -56.570312 7.71875 -57.5 C 8.632812 -58.4375 9.945312 -58.90625 11.65625 -58.90625 C 13.363281 -58.90625 14.671875 -58.4375 15.578125 -57.5 C 16.484375 -56.570312 16.9375 -55.222656 16.9375 -53.453125 L 16.9375 -33.953125 L 46.9375 -33.953125 L 46.9375 -53.453125 C 46.9375 -55.222656 47.390625 -56.570312 48.296875 -57.5 C 49.203125 -58.4375 50.507812 -58.90625 52.21875 -58.90625 C 53.925781 -58.90625 55.234375 -58.4375 56.140625 -57.5 C 57.046875 -56.570312 57.5 -55.222656 57.5 -53.453125 L 57.5 -4.796875 C 57.5 -3.085938 57.046875 -1.75 56.140625 -0.78125 C 55.234375 0.175781 53.925781 0.65625 52.21875 0.65625 C 50.507812 0.65625 49.203125 0.175781 48.296875 -0.78125 C 47.390625 -1.75 46.9375 -3.085938 46.9375 -4.796875 L 46.9375 -25.125 L 16.9375 -25.125 L 16.9375 -4.796875 C 16.9375 -3.085938 16.492188 -1.75 15.609375 -0.78125 C 14.734375 0.175781 13.414062 0.65625 11.65625 0.65625 Z M 11.65625 0.65625 "/></g></g></g><g fill="#ffffff" fill-opacity="1"><g transform="translate(277.529841, 89.062743)"><g><path d="M 20 0.828125 C 16.632812 0.828125 13.847656 0.207031 11.640625 -1.03125 C 9.441406 -2.269531 7.804688 -4.128906 6.734375 -6.609375 C 5.660156 -9.085938 5.125 -12.171875 5.125 -15.859375 L 5.125 -35.859375 C 5.125 -37.617188 5.5625 -38.925781 6.4375 -39.78125 C 7.320312 -40.632812 8.59375 -41.0625 10.25 -41.0625 C 11.894531 -41.0625 13.171875 -40.632812 14.078125 -39.78125 C 14.992188 -38.925781 15.453125 -37.617188 15.453125 -35.859375 L 15.453125 -15.703125 C 15.453125 -12.835938 16.03125 -10.710938 17.1875 -9.328125 C 18.34375 -7.953125 20.1875 -7.265625 22.71875 -7.265625 C 25.476562 -7.265625 27.738281 -8.210938 29.5 -10.109375 C 31.257812 -12.015625 32.140625 -14.539062 32.140625 -17.6875 L 32.140625 -35.859375 C 32.140625 -37.617188 32.578125 -38.925781 33.453125 -39.78125 C 34.335938 -40.632812 35.609375 -41.0625 37.265625 -41.0625 C 38.921875 -41.0625 40.203125 -40.632812 41.109375 -39.78125 C 42.015625 -38.925781 42.46875 -37.617188 42.46875 -35.859375 L 42.46875 -4.625 C 42.46875 -1.101562 40.785156 0.65625 37.421875 0.65625 C 35.828125 0.65625 34.585938 0.203125 33.703125 -0.703125 C 32.828125 -1.609375 32.390625 -2.914062 32.390625 -4.625 L 32.390625 -10.90625 L 33.546875 -8.421875 C 32.390625 -5.453125 30.640625 -3.164062 28.296875 -1.5625 C 25.953125 0.03125 23.1875 0.828125 20 0.828125 Z M 20 0.828125 "/></g></g></g><g fill="#ffffff" fill-opacity="1"><g transform="translate(325.358787, 89.062743)"><g><path d="M 28.671875 0.828125 C 25.253906 0.828125 22.265625 -0.0234375 19.703125 -1.734375 C 17.140625 -3.441406 15.445312 -5.726562 14.625 -8.59375 L 15.53125 -10.65625 L 15.53125 -4.625 C 15.53125 -2.914062 15.085938 -1.609375 14.203125 -0.703125 C 13.328125 0.203125 12.09375 0.65625 10.5 0.65625 C 8.84375 0.65625 7.570312 0.203125 6.6875 -0.703125 C 5.8125 -1.609375 5.375 -2.914062 5.375 -4.625 L 5.375 -53.703125 C 5.375 -55.410156 5.8125 -56.703125 6.6875 -57.578125 C 7.570312 -58.460938 8.84375 -58.90625 10.5 -58.90625 C 12.144531 -58.90625 13.421875 -58.460938 14.328125 -57.578125 C 15.242188 -56.703125 15.703125 -55.410156 15.703125 -53.703125 L 15.703125 -32.21875 L 14.703125 -32.21875 C 15.585938 -34.914062 17.296875 -37.09375 19.828125 -38.75 C 22.359375 -40.40625 25.304688 -41.234375 28.671875 -41.234375 C 32.253906 -41.234375 35.363281 -40.378906 38 -38.671875 C 40.644531 -36.960938 42.710938 -34.550781 44.203125 -31.4375 C 45.691406 -28.320312 46.4375 -24.59375 46.4375 -20.25 C 46.4375 -15.945312 45.691406 -12.210938 44.203125 -9.046875 C 42.710938 -5.878906 40.628906 -3.441406 37.953125 -1.734375 C 35.285156 -0.0234375 32.191406 0.828125 28.671875 0.828125 Z M 25.78125 -7.015625 C 27.820312 -7.015625 29.613281 -7.507812 31.15625 -8.5 C 32.695312 -9.5 33.894531 -10.972656 34.75 -12.921875 C 35.601562 -14.878906 36.03125 -17.320312 36.03125 -20.25 C 36.03125 -24.65625 35.09375 -27.941406 33.21875 -30.109375 C 31.34375 -32.285156 28.863281 -33.375 25.78125 -33.375 C 23.738281 -33.375 21.945312 -32.890625 20.40625 -31.921875 C 18.863281 -30.960938 17.664062 -29.503906 16.8125 -27.546875 C 15.957031 -25.597656 15.53125 -23.164062 15.53125 -20.25 C 15.53125 -15.894531 16.46875 -12.597656 18.34375 -10.359375 C 20.21875 -8.128906 22.695312 -7.015625 25.78125 -7.015625 Z M 25.78125 -7.015625 "/></g></g></g><g fill="#000000" fill-opacity="1"><g transform="translate(15.650925, 121.777708)"><g><path d="M 4.65625 0.265625 C 4.019531 0.265625 3.53125 0.0859375 3.1875 -0.265625 C 2.851562 -0.628906 2.6875 -1.128906 2.6875 -1.765625 L 2.6875 -22.203125 C 2.6875 -22.859375 2.867188 -23.359375 3.234375 -23.703125 C 3.597656 -24.054688 4.09375 -24.234375 4.71875 -24.234375 C 5.289062 -24.234375 5.738281 -24.125 6.0625 -23.90625 C 6.394531 -23.695312 6.695312 -23.332031 6.96875 -22.8125 L 15.375 -7.28125 L 14.28125 -7.28125 L 22.671875 -22.8125 C 22.953125 -23.332031 23.25 -23.695312 23.5625 -23.90625 C 23.875 -24.125 24.316406 -24.234375 24.890625 -24.234375 C 25.523438 -24.234375 26.007812 -24.054688 26.34375 -23.703125 C 26.6875 -23.359375 26.859375 -22.859375 26.859375 -22.203125 L 26.859375 -1.765625 C 26.859375 -1.128906 26.691406 -0.628906 26.359375 -0.265625 C 26.035156 0.0859375 25.546875 0.265625 24.890625 0.265625 C 24.253906 0.265625 23.765625 0.0859375 23.421875 -0.265625 C 23.085938 -0.628906 22.921875 -1.128906 22.921875 -1.765625 L 22.921875 -17.515625 L 23.65625 -17.515625 L 16.53125 -4.484375 C 16.300781 -4.097656 16.0625 -3.8125 15.8125 -3.625 C 15.5625 -3.445312 15.222656 -3.359375 14.796875 -3.359375 C 14.359375 -3.359375 14.003906 -3.453125 13.734375 -3.640625 C 13.460938 -3.835938 13.222656 -4.117188 13.015625 -4.484375 L 5.8125 -17.546875 L 6.625 -17.546875 L 6.625 -1.765625 C 6.625 -1.128906 6.457031 -0.628906 6.125 -0.265625 C 5.800781 0.0859375 5.3125 0.265625 4.65625 0.265625 Z M 4.65625 0.265625 "/></g></g></g><g fill="#000000" fill-opacity="1"><g transform="translate(45.159548, 121.777708)"><g><path d="M 7.6875 0.34375 C 6.476562 0.34375 5.40625 0.113281 4.46875 -0.34375 C 3.53125 -0.8125 2.796875 -1.441406 2.265625 -2.234375 C 1.734375 -3.035156 1.46875 -3.9375 1.46875 -4.9375 C 1.46875 -6.15625 1.78125 -7.117188 2.40625 -7.828125 C 3.039062 -8.546875 4.070312 -9.0625 5.5 -9.375 C 6.9375 -9.695312 8.851562 -9.859375 11.25 -9.859375 L 12.953125 -9.859375 L 12.953125 -7.40625 L 11.28125 -7.40625 C 9.882812 -7.40625 8.765625 -7.335938 7.921875 -7.203125 C 7.078125 -7.066406 6.476562 -6.832031 6.125 -6.5 C 5.78125 -6.175781 5.609375 -5.722656 5.609375 -5.140625 C 5.609375 -4.390625 5.867188 -3.773438 6.390625 -3.296875 C 6.910156 -2.816406 7.632812 -2.578125 8.5625 -2.578125 C 9.3125 -2.578125 9.972656 -2.753906 10.546875 -3.109375 C 11.128906 -3.460938 11.585938 -3.941406 11.921875 -4.546875 C 12.265625 -5.160156 12.4375 -5.863281 12.4375 -6.65625 L 12.4375 -10.578125 C 12.4375 -11.710938 12.1875 -12.523438 11.6875 -13.015625 C 11.195312 -13.515625 10.363281 -13.765625 9.1875 -13.765625 C 8.519531 -13.765625 7.804688 -13.6875 7.046875 -13.53125 C 6.296875 -13.375 5.5 -13.101562 4.65625 -12.71875 C 4.226562 -12.507812 3.847656 -12.453125 3.515625 -12.546875 C 3.191406 -12.640625 2.9375 -12.828125 2.75 -13.109375 C 2.570312 -13.390625 2.484375 -13.695312 2.484375 -14.03125 C 2.484375 -14.375 2.570312 -14.707031 2.75 -15.03125 C 2.9375 -15.363281 3.242188 -15.613281 3.671875 -15.78125 C 4.710938 -16.207031 5.710938 -16.507812 6.671875 -16.6875 C 7.640625 -16.875 8.519531 -16.96875 9.3125 -16.96875 C 10.945312 -16.96875 12.289062 -16.71875 13.34375 -16.21875 C 14.394531 -15.71875 15.179688 -14.960938 15.703125 -13.953125 C 16.222656 -12.941406 16.484375 -11.644531 16.484375 -10.0625 L 16.484375 -1.90625 C 16.484375 -1.195312 16.3125 -0.65625 15.96875 -0.28125 C 15.632812 0.0820312 15.148438 0.265625 14.515625 0.265625 C 13.878906 0.265625 13.382812 0.0820312 13.03125 -0.28125 C 12.6875 -0.65625 12.515625 -1.195312 12.515625 -1.90625 L 12.515625 -3.53125 L 12.78125 -3.53125 C 12.625 -2.738281 12.3125 -2.050781 11.84375 -1.46875 C 11.382812 -0.894531 10.800781 -0.445312 10.09375 -0.125 C 9.394531 0.1875 8.59375 0.34375 7.6875 0.34375 Z M 7.6875 0.34375 "/></g></g></g><g fill="#000000" fill-opacity="1"><g transform="translate(63.755418, 121.777708)"><g><path d="M 4.3125 0.265625 C 3.632812 0.265625 3.113281 0.0820312 2.75 -0.28125 C 2.382812 -0.65625 2.203125 -1.195312 2.203125 -1.90625 L 2.203125 -14.75 C 2.203125 -15.457031 2.382812 -15.988281 2.75 -16.34375 C 3.113281 -16.707031 3.625 -16.890625 4.28125 -16.890625 C 4.9375 -16.890625 5.445312 -16.707031 5.8125 -16.34375 C 6.175781 -15.988281 6.359375 -15.457031 6.359375 -14.75 L 6.359375 -12.4375 L 5.984375 -13.296875 C 6.484375 -14.492188 7.257812 -15.40625 8.3125 -16.03125 C 9.363281 -16.65625 10.5625 -16.96875 11.90625 -16.96875 C 13.238281 -16.96875 14.332031 -16.71875 15.1875 -16.21875 C 16.050781 -15.71875 16.695312 -14.960938 17.125 -13.953125 C 17.5625 -12.941406 17.78125 -11.664062 17.78125 -10.125 L 17.78125 -1.90625 C 17.78125 -1.195312 17.597656 -0.65625 17.234375 -0.28125 C 16.867188 0.0820312 16.347656 0.265625 15.671875 0.265625 C 14.992188 0.265625 14.46875 0.0820312 14.09375 -0.28125 C 13.71875 -0.65625 13.53125 -1.195312 13.53125 -1.90625 L 13.53125 -9.921875 C 13.53125 -11.210938 13.285156 -12.15625 12.796875 -12.75 C 12.304688 -13.34375 11.554688 -13.640625 10.546875 -13.640625 C 9.296875 -13.640625 8.300781 -13.242188 7.5625 -12.453125 C 6.820312 -11.671875 6.453125 -10.632812 6.453125 -9.34375 L 6.453125 -1.90625 C 6.453125 -0.457031 5.738281 0.265625 4.3125 0.265625 Z M 4.3125 0.265625 "/></g></g></g><g fill="#000000" fill-opacity="1"><g transform="translate(83.643143, 121.777708)"><g><path d="M 7.6875 0.34375 C 6.476562 0.34375 5.40625 0.113281 4.46875 -0.34375 C 3.53125 -0.8125 2.796875 -1.441406 2.265625 -2.234375 C 1.734375 -3.035156 1.46875 -3.9375 1.46875 -4.9375 C 1.46875 -6.15625 1.78125 -7.117188 2.40625 -7.828125 C 3.039062 -8.546875 4.070312 -9.0625 5.5 -9.375 C 6.9375 -9.695312 8.851562 -9.859375 11.25 -9.859375 L 12.953125 -9.859375 L 12.953125 -7.40625 L 11.28125 -7.40625 C 9.882812 -7.40625 8.765625 -7.335938 7.921875 -7.203125 C 7.078125 -7.066406 6.476562 -6.832031 6.125 -6.5 C 5.78125 -6.175781 5.609375 -5.722656 5.609375 -5.140625 C 5.609375 -4.390625 5.867188 -3.773438 6.390625 -3.296875 C 6.910156 -2.816406 7.632812 -2.578125 8.5625 -2.578125 C 9.3125 -2.578125 9.972656 -2.753906 10.546875 -3.109375 C 11.128906 -3.460938 11.585938 -3.941406 11.921875 -4.546875 C 12.265625 -5.160156 12.4375 -5.863281 12.4375 -6.65625 L 12.4375 -10.578125 C 12.4375 -11.710938 12.1875 -12.523438 11.6875 -13.015625 C 11.195312 -13.515625 10.363281 -13.765625 9.1875 -13.765625 C 8.519531 -13.765625 7.804688 -13.6875 7.046875 -13.53125 C 6.296875 -13.375 5.5 -13.101562 4.65625 -12.71875 C 4.226562 -12.507812 3.847656 -12.453125 3.515625 -12.546875 C 3.191406 -12.640625 2.9375 -12.828125 2.75 -13.109375 C 2.570312 -13.390625 2.484375 -13.695312 2.484375 -14.03125 C 2.484375 -14.375 2.570312 -14.707031 2.75 -15.03125 C 2.9375 -15.363281 3.242188 -15.613281 3.671875 -15.78125 C 4.710938 -16.207031 5.710938 -16.507812 6.671875 -16.6875 C 7.640625 -16.875 8.519531 -16.96875 9.3125 -16.96875 C 10.945312 -16.96875 12.289062 -16.71875 13.34375 -16.21875 C 14.394531 -15.71875 15.179688 -14.960938 15.703125 -13.953125 C 16.222656 -12.941406 16.484375 -11.644531 16.484375 -10.0625 L 16.484375 -1.90625 C 16.484375 -1.195312 16.3125 -0.65625 15.96875 -0.28125 C 15.632812 0.0820312 15.148438 0.265625 14.515625 0.265625 C 13.878906 0.265625 13.382812 0.0820312 13.03125 -0.28125 C 12.6875 -0.65625 12.515625 -1.195312 12.515625 -1.90625 L 12.515625 -3.53125 L 12.78125 -3.53125 C 12.625 -2.738281 12.3125 -2.050781 11.84375 -1.46875 C 11.382812 -0.894531 10.800781 -0.445312 10.09375 -0.125 C 9.394531 0.1875 8.59375 0.34375 7.6875 0.34375 Z M 7.6875 0.34375 "/></g></g></g><g fill="#000000" fill-opacity="1"><g transform="translate(102.239013, 121.777708)"><g><path d="M 9.96875 6.453125 C 8.738281 6.453125 7.550781 6.335938 6.40625 6.109375 C 5.257812 5.890625 4.222656 5.539062 3.296875 5.0625 C 2.867188 4.832031 2.578125 4.5625 2.421875 4.25 C 2.273438 3.9375 2.226562 3.613281 2.28125 3.28125 C 2.34375 2.945312 2.484375 2.65625 2.703125 2.40625 C 2.921875 2.164062 3.1875 2 3.5 1.90625 C 3.820312 1.8125 4.148438 1.859375 4.484375 2.046875 C 5.484375 2.535156 6.429688 2.851562 7.328125 3 C 8.222656 3.15625 8.988281 3.234375 9.625 3.234375 C 11.144531 3.234375 12.28125 2.863281 13.03125 2.125 C 13.789062 1.382812 14.171875 0.289062 14.171875 -1.15625 L 14.171875 -4.21875 L 14.484375 -4.21875 C 14.140625 -3.0625 13.429688 -2.132812 12.359375 -1.4375 C 11.285156 -0.75 10.066406 -0.40625 8.703125 -0.40625 C 7.203125 -0.40625 5.894531 -0.75 4.78125 -1.4375 C 3.675781 -2.132812 2.816406 -3.101562 2.203125 -4.34375 C 1.597656 -5.59375 1.296875 -7.046875 1.296875 -8.703125 C 1.296875 -9.953125 1.46875 -11.078125 1.8125 -12.078125 C 2.164062 -13.085938 2.664062 -13.957031 3.3125 -14.6875 C 3.957031 -15.414062 4.738281 -15.976562 5.65625 -16.375 C 6.570312 -16.769531 7.585938 -16.96875 8.703125 -16.96875 C 10.109375 -16.96875 11.335938 -16.617188 12.390625 -15.921875 C 13.441406 -15.234375 14.128906 -14.320312 14.453125 -13.1875 L 14.109375 -12.34375 L 14.109375 -14.75 C 14.109375 -15.457031 14.296875 -15.988281 14.671875 -16.34375 C 15.046875 -16.707031 15.5625 -16.890625 16.21875 -16.890625 C 16.894531 -16.890625 17.414062 -16.707031 17.78125 -16.34375 C 18.144531 -15.988281 18.328125 -15.457031 18.328125 -14.75 L 18.328125 -1.671875 C 18.328125 1.023438 17.613281 3.050781 16.1875 4.40625 C 14.757812 5.769531 12.6875 6.453125 9.96875 6.453125 Z M 9.859375 -3.640625 C 10.742188 -3.640625 11.503906 -3.84375 12.140625 -4.25 C 12.773438 -4.65625 13.265625 -5.238281 13.609375 -6 C 13.960938 -6.757812 14.140625 -7.660156 14.140625 -8.703125 C 14.140625 -10.265625 13.753906 -11.492188 12.984375 -12.390625 C 12.210938 -13.285156 11.171875 -13.734375 9.859375 -13.734375 C 8.972656 -13.734375 8.210938 -13.53125 7.578125 -13.125 C 6.941406 -12.71875 6.445312 -12.140625 6.09375 -11.390625 C 5.75 -10.640625 5.578125 -9.742188 5.578125 -8.703125 C 5.578125 -7.140625 5.960938 -5.90625 6.734375 -5 C 7.503906 -4.09375 8.546875 -3.640625 9.859375 -3.640625 Z M 9.859375 -3.640625 "/></g></g></g><g fill="#000000" fill-opacity="1"><g transform="translate(122.772665, 121.777708)"><g><path d="M 10.40625 0.34375 C 8.519531 0.34375 6.894531 -0.00390625 5.53125 -0.703125 C 4.175781 -1.410156 3.128906 -2.410156 2.390625 -3.703125 C 1.660156 -4.992188 1.296875 -6.523438 1.296875 -8.296875 C 1.296875 -10.015625 1.648438 -11.519531 2.359375 -12.8125 C 3.078125 -14.101562 4.0625 -15.117188 5.3125 -15.859375 C 6.570312 -16.597656 8.007812 -16.96875 9.625 -16.96875 C 10.800781 -16.96875 11.859375 -16.773438 12.796875 -16.390625 C 13.742188 -16.003906 14.550781 -15.445312 15.21875 -14.71875 C 15.882812 -14 16.390625 -13.125 16.734375 -12.09375 C 17.085938 -11.0625 17.265625 -9.898438 17.265625 -8.609375 C 17.265625 -8.191406 17.125 -7.875 16.84375 -7.65625 C 16.5625 -7.445312 16.160156 -7.34375 15.640625 -7.34375 L 4.71875 -7.34375 L 4.71875 -9.796875 L 14.28125 -9.796875 L 13.734375 -9.28125 C 13.734375 -10.320312 13.578125 -11.191406 13.265625 -11.890625 C 12.960938 -12.597656 12.519531 -13.140625 11.9375 -13.515625 C 11.363281 -13.890625 10.648438 -14.078125 9.796875 -14.078125 C 8.835938 -14.078125 8.023438 -13.851562 7.359375 -13.40625 C 6.691406 -12.96875 6.179688 -12.347656 5.828125 -11.546875 C 5.472656 -10.742188 5.296875 -9.785156 5.296875 -8.671875 L 5.296875 -8.4375 C 5.296875 -6.570312 5.734375 -5.179688 6.609375 -4.265625 C 7.484375 -3.347656 8.769531 -2.890625 10.46875 -2.890625 C 11.0625 -2.890625 11.722656 -2.960938 12.453125 -3.109375 C 13.191406 -3.253906 13.890625 -3.507812 14.546875 -3.875 C 15.023438 -4.144531 15.445312 -4.265625 15.8125 -4.234375 C 16.175781 -4.203125 16.460938 -4.070312 16.671875 -3.84375 C 16.890625 -3.613281 17.019531 -3.332031 17.0625 -3 C 17.113281 -2.675781 17.050781 -2.34375 16.875 -2 C 16.707031 -1.664062 16.421875 -1.375 16.015625 -1.125 C 15.222656 -0.625 14.3125 -0.253906 13.28125 -0.015625 C 12.25 0.222656 11.289062 0.34375 10.40625 0.34375 Z M 10.40625 0.34375 "/></g></g></g><g fill="#000000" fill-opacity="1"><g transform="translate(141.198556, 121.777708)"><g><path d="M 4.390625 0.265625 C 3.679688 0.265625 3.140625 0.0820312 2.765625 -0.28125 C 2.390625 -0.65625 2.203125 -1.195312 2.203125 -1.90625 L 2.203125 -14.75 C 2.203125 -15.457031 2.382812 -15.988281 2.75 -16.34375 C 3.113281 -16.707031 3.625 -16.890625 4.28125 -16.890625 C 4.9375 -16.890625 5.445312 -16.707031 5.8125 -16.34375 C 6.175781 -15.988281 6.359375 -15.457031 6.359375 -14.75 L 6.359375 -12.609375 L 6.015625 -12.609375 C 6.335938 -13.972656 6.960938 -15.003906 7.890625 -15.703125 C 8.816406 -16.410156 10.050781 -16.832031 11.59375 -16.96875 C 12.070312 -17.007812 12.453125 -16.890625 12.734375 -16.609375 C 13.015625 -16.328125 13.175781 -15.890625 13.21875 -15.296875 C 13.269531 -14.734375 13.140625 -14.273438 12.828125 -13.921875 C 12.523438 -13.566406 12.066406 -13.359375 11.453125 -13.296875 L 10.703125 -13.21875 C 9.328125 -13.082031 8.285156 -12.65625 7.578125 -11.9375 C 6.878906 -11.226562 6.53125 -10.226562 6.53125 -8.9375 L 6.53125 -1.90625 C 6.53125 -1.195312 6.347656 -0.65625 5.984375 -0.28125 C 5.617188 0.0820312 5.085938 0.265625 4.390625 0.265625 Z M 4.390625 0.265625 "/></g></g></g></svg>